<svg width="80" height="16" viewBox="0 0 80 16" fill="none" xmlns="http://www.w3.org/2000/svg">
<path d="M7.68332 1.53C7.71254 1.47097 7.75767 1.42129 7.81362 1.38655C7.86958 1.35181 7.93413 1.3334 7.99999 1.3334C8.06585 1.3334 8.1304 1.35181 8.18635 1.38655C8.24231 1.42129 8.28744 1.47097 8.31666 1.53L9.85666 4.64933C9.95811 4.85465 10.1079 5.03227 10.2931 5.16697C10.4783 5.30167 10.6934 5.38941 10.92 5.42267L14.364 5.92667C14.4292 5.93612 14.4906 5.96365 14.541 6.00613C14.5914 6.04862 14.6289 6.10437 14.6493 6.16707C14.6697 6.22978 14.6722 6.29694 14.6564 6.36096C14.6406 6.42498 14.6072 6.4833 14.56 6.52933L12.0693 8.95467C11.9051 9.11474 11.7822 9.31232 11.7112 9.53042C11.6403 9.74852 11.6234 9.98059 11.662 10.2067L12.25 13.6333C12.2615 13.6986 12.2545 13.7657 12.2297 13.8271C12.2048 13.8885 12.1633 13.9417 12.1097 13.9807C12.0561 14.0196 11.9926 14.0427 11.9266 14.0473C11.8605 14.0519 11.7945 14.0378 11.736 14.0067L8.65732 12.388C8.45447 12.2815 8.22878 12.2258 7.99966 12.2258C7.77054 12.2258 7.54484 12.2815 7.34199 12.388L4.26399 14.0067C4.20554 14.0376 4.13959 14.0515 4.07362 14.0468C4.00766 14.0421 3.94433 14.019 3.89085 13.9801C3.83737 13.9412 3.79588 13.8881 3.77109 13.8268C3.74631 13.7655 3.73923 13.6985 3.75066 13.6333L4.33799 10.2073C4.37679 9.98116 4.35998 9.74893 4.28901 9.5307C4.21805 9.31246 4.09506 9.11477 3.93066 8.95467L1.43999 6.53C1.39239 6.48402 1.35865 6.4256 1.34263 6.36138C1.32661 6.29717 1.32895 6.22975 1.34938 6.16679C1.3698 6.10384 1.4075 6.04789 1.45817 6.00532C1.50885 5.96275 1.57046 5.93527 1.63599 5.926L5.07932 5.42267C5.30616 5.38967 5.52158 5.30204 5.70705 5.16733C5.89251 5.03261 6.04246 4.85485 6.14399 4.64933L7.68332 1.53Z" fill="#F6A823" stroke="#F6A823" stroke-width="1.33333" stroke-linecap="round" stroke-linejoin="round"/>
<path d="M23.6833 1.53C23.7125 1.47097 23.7577 1.42129 23.8136 1.38655C23.8696 1.35181 23.9341 1.3334 24 1.3334C24.0659 1.3334 24.1304 1.35181 24.1864 1.38655C24.2423 1.42129 24.2874 1.47097 24.3167 1.53L25.8567 4.64933C25.9581 4.85465 26.1079 5.03227 26.2931 5.16697C26.4783 5.30167 26.6934 5.38941 26.92 5.42267L30.364 5.92667C30.4292 5.93612 30.4906 5.96365 30.541 6.00613C30.5914 6.04862 30.6289 6.10437 30.6493 6.16707C30.6697 6.22978 30.6722 6.29694 30.6564 6.36096C30.6406 6.42498 30.6072 6.4833 30.56 6.52933L28.0693 8.95467C27.9051 9.11474 27.7822 9.31232 27.7112 9.53042C27.6403 9.74852 27.6234 9.98059 27.662 10.2067L28.25 13.6333C28.2615 13.6986 28.2545 13.7657 28.2297 13.8271C28.2048 13.8885 28.1633 13.9417 28.1097 13.9807C28.0561 14.0196 27.9926 14.0427 27.9266 14.0473C27.8605 14.0519 27.7945 14.0378 27.736 14.0067L24.6573 12.388C24.4545 12.2815 24.2288 12.2258 23.9997 12.2258C23.7705 12.2258 23.5448 12.2815 23.342 12.388L20.264 14.0067C20.2055 14.0376 20.1396 14.0515 20.0736 14.0468C20.0077 14.0421 19.9443 14.019 19.8909 13.9801C19.8374 13.9412 19.7959 13.8881 19.7711 13.8268C19.7463 13.7655 19.7392 13.6985 19.7507 13.6333L20.338 10.2073C20.3768 9.98116 20.36 9.74893 20.289 9.5307C20.2181 9.31246 20.0951 9.11477 19.9307 8.95467L17.44 6.53C17.3924 6.48402 17.3587 6.4256 17.3426 6.36138C17.3266 6.29717 17.3289 6.22975 17.3494 6.16679C17.3698 6.10384 17.4075 6.04789 17.4582 6.00532C17.5088 5.96275 17.5705 5.93527 17.636 5.926L21.0793 5.42267C21.3062 5.38967 21.5216 5.30204 21.707 5.16733C21.8925 5.03261 22.0425 4.85485 22.144 4.64933L23.6833 1.53Z" fill="#F6A823" stroke="#F6A823" stroke-width="1.33333" stroke-linecap="round" stroke-linejoin="round"/>
<path d="M39.6833 1.53C39.7125 1.47097 39.7577 1.42129 39.8136 1.38655C39.8696 1.35181 39.9341 1.3334 40 1.3334C40.0659 1.3334 40.1304 1.35181 40.1864 1.38655C40.2423 1.42129 40.2874 1.47097 40.3167 1.53L41.8567 4.64933C41.9581 4.85465 42.1079 5.03227 42.2931 5.16697C42.4783 5.30167 42.6934 5.38941 42.92 5.42267L46.364 5.92667C46.4292 5.93612 46.4906 5.96365 46.541 6.00613C46.5914 6.04862 46.6289 6.10437 46.6493 6.16707C46.6697 6.22978 46.6722 6.29694 46.6564 6.36096C46.6406 6.42498 46.6072 6.4833 46.56 6.52933L44.0693 8.95467C43.9051 9.11474 43.7822 9.31232 43.7112 9.53042C43.6403 9.74852 43.6234 9.98059 43.662 10.2067L44.25 13.6333C44.2615 13.6986 44.2545 13.7657 44.2297 13.8271C44.2048 13.8885 44.1633 13.9417 44.1097 13.9807C44.0561 14.0196 43.9926 14.0427 43.9266 14.0473C43.8605 14.0519 43.7945 14.0378 43.736 14.0067L40.6573 12.388C40.4545 12.2815 40.2288 12.2258 39.9997 12.2258C39.7705 12.2258 39.5448 12.2815 39.342 12.388L36.264 14.0067C36.2055 14.0376 36.1396 14.0515 36.0736 14.0468C36.0077 14.0421 35.9443 14.019 35.8909 13.9801C35.8374 13.9412 35.7959 13.8881 35.7711 13.8268C35.7463 13.7655 35.7392 13.6985 35.7507 13.6333L36.338 10.2073C36.3768 9.98116 36.36 9.74893 36.289 9.5307C36.2181 9.31246 36.0951 9.11477 35.9307 8.95467L33.44 6.53C33.3924 6.48402 33.3587 6.4256 33.3426 6.36138C33.3266 6.29717 33.3289 6.22975 33.3494 6.16679C33.3698 6.10384 33.4075 6.04789 33.4582 6.00532C33.5088 5.96275 33.5705 5.93527 33.636 5.926L37.0793 5.42267C37.3062 5.38967 37.5216 5.30204 37.707 5.16733C37.8925 5.03261 38.0425 4.85485 38.144 4.64933L39.6833 1.53Z" fill="#F6A823" stroke="#F6A823" stroke-width="1.33333" stroke-linecap="round" stroke-linejoin="round"/>
<path d="M55.6833 1.53C55.7125 1.47097 55.7577 1.42129 55.8136 1.38655C55.8696 1.35181 55.9341 1.3334 56 1.3334C56.0659 1.3334 56.1304 1.35181 56.1864 1.38655C56.2423 1.42129 56.2874 1.47097 56.3167 1.53L57.8567 4.64933C57.9581 4.85465 58.1079 5.03227 58.2931 5.16697C58.4783 5.30167 58.6934 5.38941 58.92 5.42267L62.364 5.92667C62.4292 5.93612 62.4906 5.96365 62.541 6.00613C62.5914 6.04862 62.6289 6.10437 62.6493 6.16707C62.6697 6.22978 62.6722 6.29694 62.6564 6.36096C62.6406 6.42498 62.6072 6.4833 62.56 6.52933L60.0693 8.95467C59.9051 9.11474 59.7822 9.31232 59.7112 9.53042C59.6403 9.74852 59.6234 9.98059 59.662 10.2067L60.25 13.6333C60.2615 13.6986 60.2545 13.7657 60.2297 13.8271C60.2048 13.8885 60.1633 13.9417 60.1097 13.9807C60.0561 14.0196 59.9926 14.0427 59.9266 14.0473C59.8605 14.0519 59.7945 14.0378 59.736 14.0067L56.6573 12.388C56.4545 12.2815 56.2288 12.2258 55.9997 12.2258C55.7705 12.2258 55.5448 12.2815 55.342 12.388L52.264 14.0067C52.2055 14.0376 52.1396 14.0515 52.0736 14.0468C52.0077 14.0421 51.9443 14.019 51.8909 13.9801C51.8374 13.9412 51.7959 13.8881 51.7711 13.8268C51.7463 13.7655 51.7392 13.6985 51.7507 13.6333L52.338 10.2073C52.3768 9.98116 52.36 9.74893 52.289 9.5307C52.2181 9.31246 52.0951 9.11477 51.9307 8.95467L49.44 6.53C49.3924 6.48402 49.3587 6.4256 49.3426 6.36138C49.3266 6.29717 49.3289 6.22975 49.3494 6.16679C49.3698 6.10384 49.4075 6.04789 49.4582 6.00532C49.5088 5.96275 49.5705 5.93527 49.636 5.926L53.0793 5.42267C53.3062 5.38967 53.5216 5.30204 53.707 5.16733C53.8925 5.03261 54.0425 4.85485 54.144 4.64933L55.6833 1.53Z" fill="#F6A823" stroke="#F6A823" stroke-width="1.33333" stroke-linecap="round" stroke-linejoin="round"/>
<path d="M71.6833 1.53C71.7125 1.47097 71.7577 1.42129 71.8136 1.38655C71.8696 1.35181 71.9341 1.3334 72 1.3334C72.0659 1.3334 72.1304 1.35181 72.1864 1.38655C72.2423 1.42129 72.2874 1.47097 72.3167 1.53L73.8567 4.64933C73.9581 4.85465 74.1079 5.03227 74.2931 5.16697C74.4783 5.30167 74.6934 5.38941 74.92 5.42267L78.364 5.92667C78.4292 5.93612 78.4906 5.96365 78.541 6.00613C78.5914 6.04862 78.6289 6.10437 78.6493 6.16707C78.6697 6.22978 78.6722 6.29694 78.6564 6.36096C78.6406 6.42498 78.6072 6.4833 78.56 6.52933L76.0693 8.95467C75.9051 9.11474 75.7822 9.31232 75.7112 9.53042C75.6403 9.74852 75.6234 9.98059 75.662 10.2067L76.25 13.6333C76.2615 13.6986 76.2545 13.7657 76.2297 13.8271C76.2048 13.8885 76.1633 13.9417 76.1097 13.9807C76.0561 14.0196 75.9926 14.0427 75.9266 14.0473C75.8605 14.0519 75.7945 14.0378 75.736 14.0067L72.6573 12.388C72.4545 12.2815 72.2288 12.2258 71.9997 12.2258C71.7705 12.2258 71.5448 12.2815 71.342 12.388L68.264 14.0067C68.2055 14.0376 68.1396 14.0515 68.0736 14.0468C68.0077 14.0421 67.9443 14.019 67.8909 13.9801C67.8374 13.9412 67.7959 13.8881 67.7711 13.8268C67.7463 13.7655 67.7392 13.6985 67.7507 13.6333L68.338 10.2073C68.3768 9.98116 68.36 9.74893 68.289 9.5307C68.2181 9.31246 68.0951 9.11477 67.9307 8.95467L65.44 6.53C65.3924 6.48402 65.3587 6.4256 65.3426 6.36138C65.3266 6.29717 65.3289 6.22975 65.3494 6.16679C65.3698 6.10384 65.4075 6.04789 65.4582 6.00532C65.5088 5.96275 65.5705 5.93527 65.636 5.926L69.0793 5.42267C69.3062 5.38967 69.5216 5.30204 69.707 5.16733C69.8925 5.03261 70.0425 4.85485 70.144 4.64933L71.6833 1.53Z" fill="#F6A823" stroke="#F6A823" stroke-width="1.33333" stroke-linecap="round" stroke-linejoin="round"/>
</svg>
