<svg width="387" height="20" viewBox="0 0 387 20" fill="none" xmlns="http://www.w3.org/2000/svg">
<path d="M9.60416 1.91274C9.64068 1.83895 9.69709 1.77685 9.76704 1.73342C9.83698 1.69 9.91767 1.66699 9.99999 1.66699C10.0823 1.66699 10.163 1.69 10.233 1.73342C10.3029 1.77685 10.3593 1.83895 10.3958 1.91274L12.3208 5.8119C12.4476 6.06854 12.6348 6.29058 12.8663 6.45895C13.0979 6.62732 13.3668 6.737 13.65 6.77857L17.955 7.40857C18.0366 7.42039 18.1132 7.4548 18.1762 7.5079C18.2393 7.56101 18.2862 7.63069 18.3117 7.70908C18.3372 7.78746 18.3402 7.87141 18.3205 7.95143C18.3007 8.03146 18.259 8.10436 18.2 8.1619L15.0867 11.1936C14.8813 11.3937 14.7277 11.6406 14.639 11.9133C14.5503 12.1859 14.5292 12.476 14.5775 12.7586L15.3125 17.0419C15.3269 17.1234 15.3181 17.2074 15.2871 17.2841C15.2561 17.3609 15.2041 17.4274 15.1371 17.4761C15.0701 17.5247 14.9908 17.5536 14.9082 17.5593C14.8256 17.5651 14.7431 17.5475 14.67 17.5086L10.8217 15.4852C10.5681 15.3521 10.286 15.2825 9.99958 15.2825C9.71318 15.2825 9.43106 15.3521 9.17749 15.4852L5.32999 17.5086C5.25694 17.5472 5.17449 17.5646 5.09204 17.5588C5.00958 17.5529 4.93043 17.524 4.86357 17.4754C4.79672 17.4268 4.74485 17.3604 4.71387 17.2838C4.68289 17.2071 4.67404 17.1233 4.68833 17.0419L5.42249 12.7594C5.47099 12.4767 5.44998 12.1864 5.36128 11.9136C5.27257 11.6408 5.11883 11.3937 4.91333 11.1936L1.79999 8.16274C1.74049 8.10526 1.69832 8.03223 1.6783 7.95197C1.65827 7.8717 1.66119 7.78742 1.68673 7.70873C1.71226 7.63004 1.75938 7.5601 1.82272 7.50689C1.88607 7.45367 1.96308 7.41932 2.04499 7.40774L6.34916 6.77857C6.63271 6.73732 6.90199 6.62778 7.13381 6.45939C7.36564 6.291 7.55308 6.0688 7.67999 5.8119L9.60416 1.91274Z" fill="#F6A823" stroke="#F6A823" stroke-width="1.66667" stroke-linecap="round" stroke-linejoin="round"/>
<path d="M29.6042 1.91274C29.6407 1.83895 29.6971 1.77685 29.767 1.73342C29.837 1.69 29.9177 1.66699 30 1.66699C30.0823 1.66699 30.163 1.69 30.233 1.73342C30.3029 1.77685 30.3593 1.83895 30.3958 1.91274L32.3208 5.8119C32.4476 6.06854 32.6348 6.29058 32.8663 6.45895C33.0979 6.62732 33.3668 6.737 33.65 6.77857L37.955 7.40857C38.0366 7.42039 38.1132 7.4548 38.1762 7.5079C38.2393 7.56101 38.2862 7.63069 38.3117 7.70908C38.3372 7.78746 38.3402 7.87141 38.3205 7.95143C38.3007 8.03146 38.259 8.10436 38.2 8.1619L35.0867 11.1936C34.8813 11.3937 34.7277 11.6406 34.639 11.9133C34.5503 12.1859 34.5292 12.476 34.5775 12.7586L35.3125 17.0419C35.3269 17.1234 35.3181 17.2074 35.2871 17.2841C35.2561 17.3609 35.2041 17.4274 35.1371 17.4761C35.0701 17.5247 34.9908 17.5536 34.9082 17.5593C34.8256 17.5651 34.7431 17.5475 34.67 17.5086L30.8217 15.4852C30.5681 15.3521 30.286 15.2825 29.9996 15.2825C29.7132 15.2825 29.4311 15.3521 29.1775 15.4852L25.33 17.5086C25.2569 17.5472 25.1745 17.5646 25.092 17.5588C25.0096 17.5529 24.9304 17.524 24.8636 17.4754C24.7967 17.4268 24.7449 17.3604 24.7139 17.2838C24.6829 17.2071 24.674 17.1233 24.6883 17.0419L25.4225 12.7594C25.471 12.4767 25.45 12.1864 25.3613 11.9136C25.2726 11.6408 25.1188 11.3937 24.9133 11.1936L21.8 8.16274C21.7405 8.10526 21.6983 8.03223 21.6783 7.95197C21.6583 7.8717 21.6612 7.78742 21.6867 7.70873C21.7123 7.63004 21.7594 7.5601 21.8227 7.50689C21.8861 7.45367 21.9631 7.41932 22.045 7.40774L26.3492 6.77857C26.6327 6.73732 26.902 6.62778 27.1338 6.45939C27.3656 6.291 27.5531 6.0688 27.68 5.8119L29.6042 1.91274Z" fill="#F6A823" stroke="#F6A823" stroke-width="1.66667" stroke-linecap="round" stroke-linejoin="round"/>
<path d="M49.6042 1.91274C49.6407 1.83895 49.6971 1.77685 49.767 1.73342C49.837 1.69 49.9177 1.66699 50 1.66699C50.0823 1.66699 50.163 1.69 50.233 1.73342C50.3029 1.77685 50.3593 1.83895 50.3958 1.91274L52.3208 5.8119C52.4476 6.06854 52.6348 6.29058 52.8663 6.45895C53.0979 6.62732 53.3668 6.737 53.65 6.77857L57.955 7.40857C58.0366 7.42039 58.1132 7.4548 58.1762 7.5079C58.2393 7.56101 58.2862 7.63069 58.3117 7.70908C58.3372 7.78746 58.3402 7.87141 58.3205 7.95143C58.3007 8.03146 58.259 8.10436 58.2 8.1619L55.0867 11.1936C54.8813 11.3937 54.7277 11.6406 54.639 11.9133C54.5503 12.1859 54.5292 12.476 54.5775 12.7586L55.3125 17.0419C55.3269 17.1234 55.3181 17.2074 55.2871 17.2841C55.2561 17.3609 55.2041 17.4274 55.1371 17.4761C55.0701 17.5247 54.9908 17.5536 54.9082 17.5593C54.8256 17.5651 54.7431 17.5475 54.67 17.5086L50.8217 15.4852C50.5681 15.3521 50.286 15.2825 49.9996 15.2825C49.7132 15.2825 49.4311 15.3521 49.1775 15.4852L45.33 17.5086C45.2569 17.5472 45.1745 17.5646 45.092 17.5588C45.0096 17.5529 44.9304 17.524 44.8636 17.4754C44.7967 17.4268 44.7449 17.3604 44.7139 17.2838C44.6829 17.2071 44.674 17.1233 44.6883 17.0419L45.4225 12.7594C45.471 12.4767 45.45 12.1864 45.3613 11.9136C45.2726 11.6408 45.1188 11.3937 44.9133 11.1936L41.8 8.16274C41.7405 8.10526 41.6983 8.03223 41.6783 7.95197C41.6583 7.8717 41.6612 7.78742 41.6867 7.70873C41.7123 7.63004 41.7594 7.5601 41.8227 7.50689C41.8861 7.45367 41.9631 7.41932 42.045 7.40774L46.3492 6.77857C46.6327 6.73732 46.902 6.62778 47.1338 6.45939C47.3656 6.291 47.5531 6.0688 47.68 5.8119L49.6042 1.91274Z" fill="#F6A823" stroke="#F6A823" stroke-width="1.66667" stroke-linecap="round" stroke-linejoin="round"/>
<path d="M69.6042 1.91274C69.6407 1.83895 69.6971 1.77685 69.767 1.73342C69.837 1.69 69.9177 1.66699 70 1.66699C70.0823 1.66699 70.163 1.69 70.233 1.73342C70.3029 1.77685 70.3593 1.83895 70.3958 1.91274L72.3208 5.8119C72.4476 6.06854 72.6348 6.29058 72.8663 6.45895C73.0979 6.62732 73.3668 6.737 73.65 6.77857L77.955 7.40857C78.0366 7.42039 78.1132 7.4548 78.1762 7.5079C78.2393 7.56101 78.2862 7.63069 78.3117 7.70908C78.3372 7.78746 78.3402 7.87141 78.3205 7.95143C78.3007 8.03146 78.259 8.10436 78.2 8.1619L75.0867 11.1936C74.8813 11.3937 74.7277 11.6406 74.639 11.9133C74.5503 12.1859 74.5292 12.476 74.5775 12.7586L75.3125 17.0419C75.3269 17.1234 75.3181 17.2074 75.2871 17.2841C75.2561 17.3609 75.2041 17.4274 75.1371 17.4761C75.0701 17.5247 74.9908 17.5536 74.9082 17.5593C74.8256 17.5651 74.7431 17.5475 74.67 17.5086L70.8217 15.4852C70.5681 15.3521 70.286 15.2825 69.9996 15.2825C69.7132 15.2825 69.4311 15.3521 69.1775 15.4852L65.33 17.5086C65.2569 17.5472 65.1745 17.5646 65.092 17.5588C65.0096 17.5529 64.9304 17.524 64.8636 17.4754C64.7967 17.4268 64.7449 17.3604 64.7139 17.2838C64.6829 17.2071 64.674 17.1233 64.6883 17.0419L65.4225 12.7594C65.471 12.4767 65.45 12.1864 65.3613 11.9136C65.2726 11.6408 65.1188 11.3937 64.9133 11.1936L61.8 8.16274C61.7405 8.10526 61.6983 8.03223 61.6783 7.95197C61.6583 7.8717 61.6612 7.78742 61.6867 7.70873C61.7123 7.63004 61.7594 7.5601 61.8227 7.50689C61.8861 7.45367 61.9631 7.41932 62.045 7.40774L66.3492 6.77857C66.6327 6.73732 66.902 6.62778 67.1338 6.45939C67.3656 6.291 67.5531 6.0688 67.68 5.8119L69.6042 1.91274Z" fill="#F6A823" stroke="#F6A823" stroke-width="1.66667" stroke-linecap="round" stroke-linejoin="round"/>
<path d="M89.6042 1.91274C89.6407 1.83895 89.6971 1.77685 89.767 1.73342C89.837 1.69 89.9177 1.66699 90 1.66699C90.0823 1.66699 90.163 1.69 90.233 1.73342C90.3029 1.77685 90.3593 1.83895 90.3958 1.91274L92.3208 5.8119C92.4476 6.06854 92.6348 6.29058 92.8663 6.45895C93.0979 6.62732 93.3668 6.737 93.65 6.77857L97.955 7.40857C98.0366 7.42039 98.1132 7.4548 98.1762 7.5079C98.2393 7.56101 98.2862 7.63069 98.3117 7.70908C98.3372 7.78746 98.3402 7.87141 98.3205 7.95143C98.3007 8.03146 98.259 8.10436 98.2 8.1619L95.0867 11.1936C94.8813 11.3937 94.7277 11.6406 94.639 11.9133C94.5503 12.1859 94.5292 12.476 94.5775 12.7586L95.3125 17.0419C95.3269 17.1234 95.3181 17.2074 95.2871 17.2841C95.2561 17.3609 95.2041 17.4274 95.1371 17.4761C95.0701 17.5247 94.9908 17.5536 94.9082 17.5593C94.8256 17.5651 94.7431 17.5475 94.67 17.5086L90.8217 15.4852C90.5681 15.3521 90.286 15.2825 89.9996 15.2825C89.7132 15.2825 89.4311 15.3521 89.1775 15.4852L85.33 17.5086C85.2569 17.5472 85.1745 17.5646 85.092 17.5588C85.0096 17.5529 84.9304 17.524 84.8636 17.4754C84.7967 17.4268 84.7449 17.3604 84.7139 17.2838C84.6829 17.2071 84.674 17.1233 84.6883 17.0419L85.4225 12.7594C85.471 12.4767 85.45 12.1864 85.3613 11.9136C85.2726 11.6408 85.1188 11.3937 84.9133 11.1936L81.8 8.16274C81.7405 8.10526 81.6983 8.03223 81.6783 7.95197C81.6583 7.8717 81.6612 7.78742 81.6867 7.70873C81.7123 7.63004 81.7594 7.5601 81.8227 7.50689C81.8861 7.45367 81.9631 7.41932 82.045 7.40774L86.3492 6.77857C86.6327 6.73732 86.902 6.62778 87.1338 6.45939C87.3656 6.291 87.5531 6.0688 87.68 5.8119L89.6042 1.91274Z" fill="#F6A823" stroke="#F6A823" stroke-width="1.66667" stroke-linecap="round" stroke-linejoin="round"/>
</svg>
