<svg width="308" height="40" viewBox="0 0 308 40" fill="none" xmlns="http://www.w3.org/2000/svg">
<rect x="0.5" y="4.5" width="35" height="35" stroke="white" stroke-opacity="0.3"/>
<path d="M22.0013 15.3335H20.0013C19.1172 15.3335 18.2694 15.6847 17.6443 16.3098C17.0192 16.9349 16.668 17.7828 16.668 18.6668V20.6668H14.668V23.3335H16.668V28.6668H19.3346V23.3335H21.3346L22.0013 20.6668H19.3346V18.6668C19.3346 18.49 19.4049 18.3204 19.5299 18.1954C19.6549 18.0704 19.8245 18.0002 20.0013 18.0002H22.0013V15.3335Z" stroke="white" stroke-width="1.33333" stroke-linecap="round" stroke-linejoin="round"/>
<rect x="48.5" y="4.5" width="35" height="35" stroke="white" stroke-opacity="0.3"/>
<g clip-path="url(#clip0_2012_828)">
<path d="M69.332 15.3335H62.6654C60.8244 15.3335 59.332 16.8259 59.332 18.6668V25.3335C59.332 27.1744 60.8244 28.6668 62.6654 28.6668H69.332C71.173 28.6668 72.6654 27.1744 72.6654 25.3335V18.6668C72.6654 16.8259 71.173 15.3335 69.332 15.3335Z" stroke="white" stroke-width="1.33333" stroke-linecap="round" stroke-linejoin="round"/>
<path d="M68.6678 21.5802C68.75 22.135 68.6553 22.7017 68.3969 23.1995C68.1386 23.6974 67.7299 24.1011 67.2289 24.3533C66.7278 24.6055 66.1601 24.6933 65.6063 24.6042C65.0525 24.515 64.5409 24.2536 64.1443 23.857C63.7477 23.4604 63.4863 22.9488 63.3972 22.395C63.308 21.8412 63.3958 21.2735 63.648 20.7725C63.9002 20.2714 64.3039 19.8627 64.8018 19.6044C65.2996 19.346 65.8663 19.2513 66.4211 19.3335C66.9871 19.4175 67.511 19.6812 67.9156 20.0857C68.3201 20.4903 68.5839 21.0143 68.6678 21.5802Z" stroke="white" stroke-width="1.33333" stroke-linecap="round" stroke-linejoin="round"/>
<path d="M69.668 18.3335H69.6746" stroke="white" stroke-width="1.33333" stroke-linecap="round" stroke-linejoin="round"/>
</g>
<rect x="96.5" y="4.5" width="35" height="35" stroke="white" stroke-opacity="0.3"/>
<path d="M120.665 16.6668C120.665 16.6668 120.199 18.0668 119.332 18.9335C120.399 25.6002 113.065 30.4668 107.332 26.6668C108.799 26.7335 110.265 26.2668 111.332 25.3335C107.999 24.3335 106.332 20.4002 107.999 17.3335C109.465 19.0668 111.732 20.0668 113.999 20.0002C113.399 17.2002 116.665 15.6002 118.665 17.4668C119.399 17.4668 120.665 16.6668 120.665 16.6668Z" stroke="white" stroke-width="1.33333" stroke-linecap="round" stroke-linejoin="round"/>
<rect x="144.5" y="4.5" width="35" height="35" stroke="white" stroke-opacity="0.3"/>
<path d="M155.666 25.3333C155.2 23.1355 155.2 20.8645 155.666 18.6667C155.727 18.4435 155.845 18.24 156.009 18.0764C156.172 17.9128 156.376 17.7945 156.599 17.7333C160.175 17.141 163.823 17.141 167.399 17.7333C167.622 17.7945 167.826 17.9128 167.989 18.0764C168.153 18.24 168.271 18.4435 168.332 18.6667C168.798 20.8645 168.798 23.1355 168.332 25.3333C168.271 25.5565 168.153 25.7599 167.989 25.9236C167.826 26.0872 167.622 26.2055 167.399 26.2667C163.823 26.8591 160.175 26.8591 156.599 26.2667C156.376 26.2055 156.172 26.0872 156.009 25.9236C155.845 25.7599 155.727 25.5565 155.666 25.3333Z" stroke="white" stroke-width="1.33333" stroke-linecap="round" stroke-linejoin="round"/>
<path d="M160.668 24L164.001 22L160.668 20V24Z" stroke="white" stroke-width="1.33333" stroke-linecap="round" stroke-linejoin="round"/>
<defs>
<clipPath id="clip0_2012_828">
<rect width="16" height="16" fill="white" transform="translate(58 14)"/>
</clipPath>
</defs>
</svg>
