<svg width="24" height="24" viewBox="0 0 24 24" fill="none" xmlns="http://www.w3.org/2000/svg">
<path d="M23.2028 17.4068V20.9068C23.2041 21.2317 23.1376 21.5533 23.0074 21.851C22.8772 22.1487 22.6863 22.416 22.4469 22.6356C22.2075 22.8553 21.9248 23.0225 21.617 23.1266C21.3092 23.2307 20.9831 23.2694 20.6595 23.2401C17.0694 22.85 13.621 21.6233 10.5911 19.6584C7.77227 17.8672 5.38236 15.4773 3.59114 12.6584C1.61944 9.61485 0.39242 6.14961 0.00946949 2.54345C-0.0196849 2.22082 0.0186569 1.89567 0.122053 1.58867C0.22545 1.28168 0.391635 0.999584 0.61003 0.760338C0.828424 0.521092 1.09424 0.329941 1.39056 0.199055C1.68688 0.0681701 2.0072 0.00041817 2.33114 0.000113111H5.83114C6.39733 -0.00545941 6.94623 0.195038 7.37552 0.564235C7.80482 0.933431 8.08523 1.44613 8.16447 2.00678C8.3122 3.12686 8.58616 4.22663 8.98114 5.28511C9.1381 5.70269 9.17208 6.15651 9.07903 6.59281C8.98598 7.0291 8.76981 7.42958 8.45614 7.74678L6.97447 9.22845C8.63528 12.1492 11.0537 14.5676 13.9745 16.2284L15.4561 14.7468C15.7733 14.4331 16.1738 14.2169 16.6101 14.1239C17.0464 14.0308 17.5002 14.0648 17.9178 14.2218C18.9763 14.6168 20.0761 14.8907 21.1961 15.0384C21.7629 15.1184 22.2804 15.4039 22.6504 15.8405C23.0204 16.2772 23.217 16.8346 23.2028 17.4068Z" stroke="white" stroke-width="2.33333" stroke-linecap="round" stroke-linejoin="round"/>
</svg>
