<svg width="17" height="17" viewBox="0 0 17 17" fill="none" xmlns="http://www.w3.org/2000/svg">
<path d="M16.5734 12.4334V14.9334C16.5744 15.1655 16.5268 15.3952 16.4339 15.6079C16.3409 15.8205 16.2045 16.0114 16.0335 16.1683C15.8625 16.3252 15.6606 16.4446 15.4407 16.519C15.2209 16.5934 14.9879 16.621 14.7568 16.6001C12.1925 16.3214 9.72926 15.4452 7.5651 14.0417C5.55162 12.7623 3.84454 11.0552 2.5651 9.04175C1.15675 6.86775 0.2803 4.39258 0.00676392 1.81675C-0.0140607 1.5863 0.0133264 1.35405 0.0871809 1.13477C0.161035 0.915488 0.27974 0.713988 0.435736 0.543098C0.591732 0.372208 0.781601 0.235672 0.993256 0.142182C1.20491 0.0486929 1.43371 0.000298693 1.6651 8.07936e-05H4.1651C4.56952 -0.00389958 4.96159 0.139313 5.26823 0.403025C5.57487 0.666736 5.77516 1.03295 5.83176 1.43341C5.93728 2.23347 6.13297 3.01902 6.4151 3.77508C6.52722 4.07335 6.55148 4.39751 6.48502 4.70915C6.41856 5.02079 6.26415 5.30684 6.0401 5.53341L4.98176 6.59175C6.16806 8.67804 7.89548 10.4055 9.98176 11.5917L11.0401 10.5334C11.2667 10.3094 11.5527 10.155 11.8644 10.0885C12.176 10.022 12.5002 10.0463 12.7984 10.1584C13.5545 10.4405 14.34 10.6362 15.1401 10.7417C15.5449 10.7989 15.9146 11.0028 16.1789 11.3147C16.4432 11.6266 16.5836 12.0247 16.5734 12.4334Z" stroke="white" stroke-width="1.66667" stroke-linecap="round" stroke-linejoin="round"/>
</svg>
