<svg width="14" height="12" viewBox="0 0 14 12" fill="none" xmlns="http://www.w3.org/2000/svg">
<path d="M13.1653 10.0093L7.832 0.675931C7.71571 0.470734 7.54707 0.300056 7.34328 0.18131C7.13949 0.0625642 6.90786 0 6.672 0C6.43614 0 6.2045 0.0625642 6.00071 0.18131C5.79693 0.300056 5.62829 0.470734 5.512 0.675931L0.178664 10.0093C0.0611188 10.2128 -0.000517286 10.4439 3.27017e-06 10.6789C0.000523827 10.914 0.0631825 11.1448 0.181628 11.3478C0.300074 11.5509 0.470096 11.719 0.674461 11.8352C0.878826 11.9513 1.11027 12.0114 1.34533 12.0093H12.012C12.2459 12.009 12.4757 11.9472 12.6782 11.8301C12.8807 11.713 13.0488 11.5447 13.1657 11.342C13.2825 11.1394 13.344 10.9095 13.344 10.6756C13.3439 10.4417 13.2823 10.2119 13.1653 10.0093Z" stroke="white" stroke-width="1.33333" stroke-linecap="round" stroke-linejoin="round"/>
</svg>
