<svg width="34" height="34" viewBox="0 0 34 34" fill="none" xmlns="http://www.w3.org/2000/svg">
<path d="M33.1469 24.8668V29.8668C33.1487 30.331 33.0537 30.7904 32.8677 31.2157C32.6818 31.641 32.409 32.0228 32.067 32.3366C31.725 32.6504 31.3212 32.8893 30.8814 33.038C30.4417 33.1867 29.9758 33.2419 29.5135 33.2002C24.3849 32.6429 19.4585 30.8904 15.1302 28.0835C11.1032 25.5246 7.68909 22.1104 5.13019 18.0835C2.31349 13.7355 0.560599 8.78515 0.0135278 3.63349C-0.0281213 3.17261 0.0266527 2.7081 0.174362 2.26954C0.322071 1.83098 0.559479 1.42798 0.871471 1.0862C1.18346 0.744417 1.5632 0.471344 1.98651 0.284365C2.40982 0.0973859 2.86743 0.000597386 3.33019 0.000161587H8.33019C9.13904 -0.00779916 9.92318 0.278626 10.5365 0.806049C11.1497 1.33347 11.5503 2.06591 11.6635 2.86683C11.8746 4.46694 12.2659 6.03804 12.8302 7.55016C13.0544 8.1467 13.103 8.79502 12.97 9.41829C12.8371 10.0416 12.5283 10.6137 12.0802 11.0668L9.96353 13.1835C12.3361 17.3561 15.791 20.8109 19.9635 23.1835L22.0802 21.0668C22.5333 20.6187 23.1055 20.3099 23.7287 20.177C24.352 20.0441 25.0003 20.0926 25.5969 20.3168C27.109 20.8811 28.6801 21.2725 30.2802 21.4835C31.0898 21.5977 31.8292 22.0055 32.3577 22.6293C32.8863 23.2531 33.1671 24.0495 33.1469 24.8668Z" stroke="#0D1D3B" stroke-width="3.33333" stroke-linecap="round" stroke-linejoin="round"/>
</svg>
