<svg width="12" height="14" viewBox="0 0 12 14" fill="none" xmlns="http://www.w3.org/2000/svg">
<path d="M0.66894 8.00174C0.542784 8.00217 0.419094 7.96679 0.312242 7.89972C0.205391 7.83265 0.119763 7.73664 0.0653067 7.62284C0.0108508 7.50904 -0.0101978 7.38213 0.00460648 7.25684C0.0194108 7.13156 0.0694603 7.01304 0.14894 6.91507L6.74894 0.11507C6.79845 0.0579239 6.86591 0.0193072 6.94026 0.0055581C7.01461 -0.00819097 7.09142 0.00374456 7.15809 0.0394056C7.22476 0.0750666 7.27733 0.132334 7.30716 0.201808C7.337 0.271282 7.34233 0.348835 7.32227 0.421736L6.04227 4.43507C6.00453 4.53609 5.99185 4.64475 6.00533 4.75174C6.01881 4.85873 6.05805 4.96086 6.11967 5.04935C6.18129 5.13785 6.26346 5.21008 6.35912 5.25984C6.45479 5.30961 6.5611 5.33542 6.66894 5.33507H11.3356C11.4618 5.33464 11.5855 5.37001 11.6923 5.43708C11.7992 5.50415 11.8848 5.60017 11.9392 5.71397C11.9937 5.82776 12.0147 5.95468 11.9999 6.07996C11.9851 6.20525 11.9351 6.32376 11.8556 6.42174L5.25561 13.2217C5.2061 13.2789 5.13863 13.3175 5.06429 13.3312C4.98994 13.345 4.91312 13.3331 4.84645 13.2974C4.77978 13.2617 4.72722 13.2045 4.69738 13.135C4.66755 13.0655 4.66222 12.988 4.68227 12.9151L5.96227 8.90174C6.00002 8.80072 6.01269 8.69206 5.99921 8.58507C5.98573 8.47807 5.9465 8.37595 5.88488 8.28745C5.82326 8.19896 5.74109 8.12673 5.64542 8.07696C5.54976 8.0272 5.44344 8.00139 5.33561 8.00174H0.66894Z" fill="#0D1D3B"/>
</svg>
