<svg width="47" height="47" viewBox="0 0 47 47" fill="none" xmlns="http://www.w3.org/2000/svg">
<path d="M46.4056 34.8136V41.8136C46.4082 42.4634 46.2751 43.1066 46.0148 43.702C45.7545 44.2975 45.3726 44.8319 44.8938 45.2712C44.4149 45.7106 43.8496 46.045 43.234 46.2532C42.6184 46.4614 41.9661 46.5387 41.3189 46.4802C34.1389 45.7001 27.2419 43.2466 21.1823 39.3169C15.5445 35.7344 10.7647 30.9546 7.18227 25.3169C3.23889 19.2297 0.784839 12.2992 0.018939 5.08689C-0.0393699 4.44165 0.0373138 3.79133 0.244107 3.17735C0.450899 2.56337 0.783271 1.99917 1.22006 1.52068C1.65685 1.04218 2.18848 0.659881 2.78112 0.398111C3.37375 0.13634 4.0144 0.00083634 4.66227 0.000226222H11.6623C12.7947 -0.0109188 13.8925 0.390076 14.751 1.12847C15.6096 1.86686 16.1705 2.89227 16.3289 4.01356C16.6244 6.25371 17.1723 8.45326 17.9623 10.5702C18.2762 11.4054 18.3442 12.313 18.1581 13.1856C17.972 14.0582 17.5396 14.8592 16.9123 15.4936L13.9489 18.4569C17.2706 24.2985 22.1073 29.1353 27.9489 32.4569L30.9123 29.4936C31.5467 28.8662 32.3476 28.4339 33.2202 28.2478C34.0928 28.0617 35.0004 28.1296 35.8356 28.4436C37.9526 29.2335 40.1521 29.7814 42.3923 30.0769C43.5257 30.2368 44.5609 30.8077 45.3008 31.681C46.0408 32.5544 46.434 33.6692 46.4056 34.8136Z" stroke="#CB2020" stroke-width="5.83333" stroke-linecap="round" stroke-linejoin="round"/>
</svg>
