<svg width="29" height="20" viewBox="0 0 29 20" fill="none" xmlns="http://www.w3.org/2000/svg">
<path d="M24 6V1.5C24 1.10218 23.842 0.720644 23.5607 0.43934C23.2794 0.158035 22.8978 0 22.5 0H3C2.20435 0 1.44129 0.31607 0.87868 0.87868C0.31607 1.44129 0 2.20435 0 3C0 3.79565 0.31607 4.55871 0.87868 5.12132C1.44129 5.68393 2.20435 6 3 6H25.5C25.8978 6 26.2794 6.15804 26.5607 6.43934C26.842 6.72064 27 7.10218 27 7.5V13.5M27 13.5H22.5C21.7044 13.5 20.9413 13.8161 20.3787 14.3787C19.8161 14.9413 19.5 15.7044 19.5 16.5C19.5 17.2956 19.8161 18.0587 20.3787 18.6213C20.9413 19.1839 21.7044 19.5 22.5 19.5H27C27.3978 19.5 27.7794 19.342 28.0607 19.0607C28.342 18.7794 28.5 18.3978 28.5 18V15C28.5 14.6022 28.342 14.2206 28.0607 13.9393C27.7794 13.658 27.3978 13.5 27 13.5Z" stroke="#CB2020" stroke-width="3" stroke-linecap="round" stroke-linejoin="round"/>
</svg>
