<svg width="24" height="32" viewBox="0 0 24 32" fill="none" xmlns="http://www.w3.org/2000/svg">
<path d="M5.83333 19.1667C6.9384 19.1667 7.99821 18.7277 8.77961 17.9463C9.56101 17.1649 10 16.1051 10 15C10 12.7 9.16667 11.6667 8.33333 10C6.54667 6.42833 7.96 3.24333 11.6667 0C12.5 4.16667 15 8.16667 18.3333 10.8333C21.6667 13.5 23.3333 16.6667 23.3333 20C23.3333 21.5321 23.0316 23.0492 22.4453 24.4646C21.859 25.8801 20.9996 27.1662 19.9162 28.2496C18.8329 29.3329 17.5468 30.1923 16.1313 30.7786C14.7158 31.3649 13.1988 31.6667 11.6667 31.6667C10.1346 31.6667 8.61749 31.3649 7.20203 30.7786C5.78656 30.1923 4.50044 29.3329 3.41709 28.2496C2.33374 27.1662 1.47438 25.8801 0.888072 24.4646C0.301767 23.0492 -2.28299e-08 21.5321 0 20C0 18.0783 0.721667 16.1767 1.66667 15C1.66667 16.1051 2.10565 17.1649 2.88706 17.9463C3.66846 18.7277 4.72826 19.1667 5.83333 19.1667Z" stroke="#CB2020" stroke-width="3.33333" stroke-linecap="round" stroke-linejoin="round"/>
</svg>
