<svg width="14" height="14" viewBox="0 0 14 14" fill="none" xmlns="http://www.w3.org/2000/svg">
<path d="M13.2587 9.94673V11.9467C13.2595 12.1324 13.2215 12.3162 13.1471 12.4863C13.0727 12.6564 12.9636 12.8091 12.8268 12.9346C12.69 13.0602 12.5285 13.1557 12.3526 13.2152C12.1767 13.2747 11.9903 13.2968 11.8054 13.2801C9.75397 13.0572 7.78341 12.3562 6.05208 11.2334C4.4413 10.2098 3.07564 8.84418 2.05208 7.2334C0.925397 5.4942 0.22424 3.51406 0.00541114 1.4534C-0.0112485 1.26904 0.0106611 1.08324 0.0697447 0.907814C0.128828 0.73239 0.223792 0.571191 0.348588 0.434479C0.473385 0.297767 0.625281 0.188538 0.794605 0.113746C0.963929 0.0389544 1.14697 0.000238954 1.33208 6.46349e-05H3.33208C3.65562 -0.00311966 3.96927 0.11145 4.21459 0.32242C4.4599 0.533389 4.62013 0.826362 4.66541 1.14673C4.74983 1.78678 4.90638 2.41522 5.13208 3.02006C5.22177 3.25868 5.24119 3.51801 5.18802 3.76732C5.13485 4.01663 5.01132 4.24547 4.83208 4.42673L3.98541 5.2734C4.93445 6.94243 6.31638 8.32436 7.98541 9.2734L8.83208 8.42673C9.01334 8.24749 9.24218 8.12396 9.49149 8.07079C9.7408 8.01762 10.0001 8.03704 10.2387 8.12673C10.8436 8.35243 11.472 8.50898 12.1121 8.5934C12.4359 8.63909 12.7317 8.8022 12.9431 9.05173C13.1545 9.30125 13.2669 9.61978 13.2587 9.94673Z" stroke="white" stroke-width="1.33333" stroke-linecap="round" stroke-linejoin="round"/>
</svg>
