<svg width="32" height="32" viewBox="0 0 32 32" fill="none" xmlns="http://www.w3.org/2000/svg">
<path d="M19.5022 7.17274C19.1968 7.48429 19.0258 7.90315 19.0258 8.3394C19.0258 8.77566 19.1968 9.19452 19.5022 9.50607L22.1689 12.1727C22.4804 12.4781 22.8993 12.6492 23.3355 12.6492C23.7718 12.6492 24.1907 12.4781 24.5022 12.1727L30.7855 5.8894C31.6236 7.74139 31.8773 9.80479 31.513 11.8046C31.1486 13.8045 30.1834 15.6458 28.746 17.0832C27.3086 18.5206 25.4673 19.4858 23.4674 19.8502C21.4676 20.2145 19.4042 19.9608 17.5522 19.1227L6.03553 30.6394C5.37249 31.3024 4.47322 31.6749 3.53553 31.6749C2.59785 31.6749 1.69857 31.3024 1.03553 30.6394C0.372493 29.9764 0 29.0771 0 28.1394C0 27.2017 0.372493 26.3024 1.03553 25.6394L12.5522 14.1227C11.7141 12.2708 11.4604 10.2073 11.8248 8.20749C12.1891 6.20764 13.1543 4.36633 14.5917 2.92894C16.0291 1.49155 17.8704 0.526351 19.8703 0.161974C21.8701 -0.202404 23.9335 0.0513443 25.7855 0.889403L19.5189 7.15607L19.5022 7.17274Z" stroke="#CB2020" stroke-width="3.33333" stroke-linecap="round" stroke-linejoin="round"/>
</svg>
