<svg width="24" height="30" viewBox="0 0 24 30" fill="none" xmlns="http://www.w3.org/2000/svg">
<path d="M24 16.5007C24 24.0007 18.75 27.7507 12.51 29.9257C12.1832 30.0364 11.8283 30.0311 11.505 29.9107C5.25 27.7507 0 24.0007 0 16.5007V6.00067C0 5.60285 0.158036 5.22132 0.43934 4.94001C0.720645 4.65871 1.10218 4.50067 1.5 4.50067C4.5 4.50067 8.25 2.70067 10.86 0.420674C11.1778 0.149172 11.582 0 12 0C12.418 0 12.8222 0.149172 13.14 0.420674C15.765 2.71567 19.5 4.50067 22.5 4.50067C22.8978 4.50067 23.2794 4.65871 23.5607 4.94001C23.842 5.22132 24 5.60285 24 6.00067V16.5007Z" stroke="#CB2020" stroke-width="3" stroke-linecap="round" stroke-linejoin="round"/>
</svg>
