<svg width="18" height="20" viewBox="0 0 18 20" fill="none" xmlns="http://www.w3.org/2000/svg">
<path d="M1.00341 12.0026C0.814175 12.0033 0.628641 11.9502 0.468364 11.8496C0.308086 11.749 0.179644 11.605 0.0979601 11.4343C0.0162761 11.2636 -0.0152968 11.0732 0.00690972 10.8853C0.0291162 10.6973 0.10419 10.5196 0.22341 10.3726L10.1234 0.172604C10.1977 0.0868858 10.2989 0.0289607 10.4104 0.00833715C10.5219 -0.0122864 10.6371 0.00561683 10.7371 0.0591084C10.8371 0.1126 10.916 0.198501 10.9607 0.302712C11.0055 0.406923 11.0135 0.523253 10.9834 0.632604L9.06341 6.6526C9.0068 6.80413 8.98778 6.96712 9.008 7.12761C9.02822 7.2881 9.08707 7.44129 9.1795 7.57403C9.27193 7.70678 9.39518 7.81512 9.53869 7.88976C9.68219 7.96441 9.84166 8.00313 10.0034 8.0026H17.0034C17.1926 8.00196 17.3782 8.05502 17.5385 8.15563C17.6987 8.25623 17.8272 8.40025 17.9089 8.57095C17.9905 8.74165 18.0221 8.93202 17.9999 9.11995C17.9777 9.30787 17.9026 9.48565 17.7834 9.6326L7.88341 19.8326C7.80915 19.9183 7.70795 19.9762 7.59643 19.9969C7.48491 20.0175 7.36969 19.9996 7.26968 19.9461C7.16967 19.8926 7.09083 19.8067 7.04607 19.7025C7.00132 19.5983 6.99333 19.482 7.02341 19.3726L8.94341 13.3526C9.00002 13.2011 9.01904 13.0381 8.99882 12.8776C8.9786 12.7171 8.91975 12.5639 8.82732 12.4312C8.73489 12.2984 8.61164 12.1901 8.46813 12.1154C8.32463 12.0408 8.16516 12.0021 8.00341 12.0026H1.00341Z" fill="white"/>
</svg>
