<svg width="20" height="25" viewBox="0 0 20 25" fill="none" xmlns="http://www.w3.org/2000/svg">
<path d="M19.25 13.4171C19.25 19.2504 15.1667 22.1671 10.3134 23.8588C10.0592 23.9449 9.78317 23.9408 9.53171 23.8471C4.66671 22.1671 0.583374 19.2504 0.583374 13.4171V5.25044C0.583374 4.94102 0.706291 4.64428 0.925083 4.42549C1.14388 4.20669 1.44062 4.08378 1.75004 4.08378C4.08337 4.08378 7.00004 2.68378 9.03004 0.910443C9.2772 0.699275 9.59162 0.583252 9.91671 0.583252C10.2418 0.583252 10.5562 0.699275 10.8034 0.910443C12.845 2.69544 15.75 4.08378 18.0834 4.08378C18.3928 4.08378 18.6895 4.20669 18.9083 4.42549C19.1271 4.64428 19.25 4.94102 19.25 5.25044V13.4171Z" stroke="#D7A03D" stroke-width="1.16667" stroke-linecap="round" stroke-linejoin="round"/>
</svg>
